<?xml version="1.0" encoding="UTF-8" standalone="no"?>
<!DOCTYPE svg PUBLIC "-//W3C//DTD SVG 1.1//EN"
 "http://www.w3.org/Graphics/SVG/1.1/DTD/svg11.dtd">
<!-- Generated by graphviz version 2.43.0 (0)
 -->
<!-- Title: G Pages: 1 -->
<svg width="1569pt" height="584pt"
 viewBox="0.00 0.00 1569.00 584.00" xmlns="http://www.w3.org/2000/svg" xmlns:xlink="http://www.w3.org/1999/xlink">
<g id="graph0" class="graph" transform="scale(1 1) rotate(0) translate(4 580)">
<title>G</title>
<polygon fill="white" stroke="transparent" points="-4,4 -4,-580 1565,-580 1565,4 -4,4"/>
<!-- data.aws_ami.ubuntu -->
<g id="node1" class="node">
<title>data.aws_ami.ubuntu</title>
<polygon fill="none" stroke="black" points="461.5,-414 295.5,-414 295.5,-378 461.5,-378 461.5,-414"/>
<text text-anchor="middle" x="378.5" y="-392.3" font-family="sans-serif" font-size="14.00">data.aws_ami.ubuntu</text>
</g>
<!-- aws_apigatewayv2_api.musiql_api -->
<g id="node2" class="node">
<title>aws_apigatewayv2_api.musiql_api</title>
<polygon fill="none" stroke="black" points="906.5,-68 652.5,-68 652.5,-32 906.5,-32 906.5,-68"/>
<text text-anchor="middle" x="779.5" y="-46.3" font-family="sans-serif" font-size="14.00">aws_apigatewayv2_api.musiql_api</text>
</g>
<!-- aws_apigatewayv2_integration.lambda -->
<g id="node3" class="node">
<title>aws_apigatewayv2_integration.lambda</title>
<polygon fill="none" stroke="black" points="1282,-122 996,-122 996,-86 1282,-86 1282,-122"/>
<text text-anchor="middle" x="1139" y="-100.3" font-family="sans-serif" font-size="14.00">aws_apigatewayv2_integration.lambda</text>
</g>
<!-- aws_apigatewayv2_integration.lambda&#45;&gt;aws_apigatewayv2_api.musiql_api -->
<g id="edge1" class="edge">
<title>aws_apigatewayv2_integration.lambda&#45;&gt;aws_apigatewayv2_api.musiql_api</title>
<path fill="none" stroke="black" d="M1019.28,-85.97C999.48,-82.97 979.16,-79.89 960,-77 944.13,-74.6 927.47,-72.09 910.96,-69.6"/>
<polygon fill="black" stroke="black" points="911.12,-66.09 900.71,-68.06 910.08,-73.01 911.12,-66.09"/>
</g>
<!-- aws_lambda_function.musiql_lambda -->
<g id="node12" class="node">
<title>aws_lambda_function.musiql_lambda</title>
<polygon fill="none" stroke="black" points="917,-122 642,-122 642,-86 917,-86 917,-122"/>
<text text-anchor="middle" x="779.5" y="-100.3" font-family="sans-serif" font-size="14.00">aws_lambda_function.musiql_lambda</text>
</g>
<!-- aws_apigatewayv2_integration.lambda&#45;&gt;aws_lambda_function.musiql_lambda -->
<g id="edge2" class="edge">
<title>aws_apigatewayv2_integration.lambda&#45;&gt;aws_lambda_function.musiql_lambda</title>
<path fill="none" stroke="black" d="M995.94,-104C973.36,-104 949.98,-104 927.3,-104"/>
<polygon fill="black" stroke="black" points="927.28,-100.5 917.28,-104 927.28,-107.5 927.28,-100.5"/>
</g>
<!-- aws_apigatewayv2_route.default -->
<g id="node4" class="node">
<title>aws_apigatewayv2_route.default</title>
<polygon fill="none" stroke="black" points="1561,-122 1318,-122 1318,-86 1561,-86 1561,-122"/>
<text text-anchor="middle" x="1439.5" y="-100.3" font-family="sans-serif" font-size="14.00">aws_apigatewayv2_route.default</text>
</g>
<!-- aws_apigatewayv2_route.default&#45;&gt;aws_apigatewayv2_integration.lambda -->
<g id="edge3" class="edge">
<title>aws_apigatewayv2_route.default&#45;&gt;aws_apigatewayv2_integration.lambda</title>
<path fill="none" stroke="black" d="M1317.95,-104C1309.46,-104 1300.84,-104 1292.21,-104"/>
<polygon fill="black" stroke="black" points="1292.08,-100.5 1282.08,-104 1292.08,-107.5 1292.08,-100.5"/>
</g>
<!-- aws_apigatewayv2_stage.default -->
<g id="node5" class="node">
<title>aws_apigatewayv2_stage.default</title>
<polygon fill="none" stroke="black" points="1261.5,-68 1016.5,-68 1016.5,-32 1261.5,-32 1261.5,-68"/>
<text text-anchor="middle" x="1139" y="-46.3" font-family="sans-serif" font-size="14.00">aws_apigatewayv2_stage.default</text>
</g>
<!-- aws_apigatewayv2_stage.default&#45;&gt;aws_apigatewayv2_api.musiql_api -->
<g id="edge4" class="edge">
<title>aws_apigatewayv2_stage.default&#45;&gt;aws_apigatewayv2_api.musiql_api</title>
<path fill="none" stroke="black" d="M1016.47,-50C984.37,-50 949.51,-50 916.69,-50"/>
<polygon fill="black" stroke="black" points="916.57,-46.5 906.57,-50 916.57,-53.5 916.57,-46.5"/>
</g>
<!-- aws_db_instance.musiql_db -->
<g id="node6" class="node">
<title>aws_db_instance.musiql_db</title>
<polygon fill="none" stroke="black" points="1243.5,-310 1034.5,-310 1034.5,-274 1243.5,-274 1243.5,-310"/>
<text text-anchor="middle" x="1139" y="-288.3" font-family="sans-serif" font-size="14.00">aws_db_instance.musiql_db</text>
</g>
<!-- aws_db_subnet_group.musiql_db_subnet_group -->
<g id="node7" class="node">
<title>aws_db_subnet_group.musiql_db_subnet_group</title>
<polygon fill="none" stroke="black" points="953.5,-252 605.5,-252 605.5,-216 953.5,-216 953.5,-252"/>
<text text-anchor="middle" x="779.5" y="-230.3" font-family="sans-serif" font-size="14.00">aws_db_subnet_group.musiql_db_subnet_group</text>
</g>
<!-- aws_db_instance.musiql_db&#45;&gt;aws_db_subnet_group.musiql_db_subnet_group -->
<g id="edge5" class="edge">
<title>aws_db_instance.musiql_db&#45;&gt;aws_db_subnet_group.musiql_db_subnet_group</title>
<path fill="none" stroke="black" d="M1036.88,-273.97C1011.78,-269.61 984.93,-265.04 960,-261 944.94,-258.56 929.17,-256.07 913.48,-253.65"/>
<polygon fill="black" stroke="black" points="913.6,-250.13 903.19,-252.07 912.54,-257.05 913.6,-250.13"/>
</g>
<!-- aws_security_group.rds_sg -->
<g id="node19" class="node">
<title>aws_security_group.rds_sg</title>
<polygon fill="none" stroke="black" points="881,-360 678,-360 678,-324 881,-324 881,-360"/>
<text text-anchor="middle" x="779.5" y="-338.3" font-family="sans-serif" font-size="14.00">aws_security_group.rds_sg</text>
</g>
<!-- aws_db_instance.musiql_db&#45;&gt;aws_security_group.rds_sg -->
<g id="edge6" class="edge">
<title>aws_db_instance.musiql_db&#45;&gt;aws_security_group.rds_sg</title>
<path fill="none" stroke="black" d="M1034.12,-306.53C989.27,-312.8 936.75,-320.15 891.17,-326.52"/>
<polygon fill="black" stroke="black" points="890.67,-323.06 881.25,-327.91 891.64,-329.99 890.67,-323.06"/>
</g>
<!-- aws_subnet.private_a -->
<g id="node21" class="node">
<title>aws_subnet.private_a</title>
<polygon fill="none" stroke="black" points="462,-198 295,-198 295,-162 462,-162 462,-198"/>
<text text-anchor="middle" x="378.5" y="-176.3" font-family="sans-serif" font-size="14.00">aws_subnet.private_a</text>
</g>
<!-- aws_db_subnet_group.musiql_db_subnet_group&#45;&gt;aws_subnet.private_a -->
<g id="edge7" class="edge">
<title>aws_db_subnet_group.musiql_db_subnet_group&#45;&gt;aws_subnet.private_a</title>
<path fill="none" stroke="black" d="M645.36,-215.98C588.53,-208.29 523.59,-199.5 472.11,-192.53"/>
<polygon fill="black" stroke="black" points="472.39,-189.04 462.01,-191.17 471.45,-195.98 472.39,-189.04"/>
</g>
<!-- aws_subnet.private_b -->
<g id="node22" class="node">
<title>aws_subnet.private_b</title>
<polygon fill="none" stroke="black" points="462,-252 295,-252 295,-216 462,-216 462,-252"/>
<text text-anchor="middle" x="378.5" y="-230.3" font-family="sans-serif" font-size="14.00">aws_subnet.private_b</text>
</g>
<!-- aws_db_subnet_group.musiql_db_subnet_group&#45;&gt;aws_subnet.private_b -->
<g id="edge8" class="edge">
<title>aws_db_subnet_group.musiql_db_subnet_group&#45;&gt;aws_subnet.private_b</title>
<path fill="none" stroke="black" d="M605.23,-234C559.48,-234 511.85,-234 472.2,-234"/>
<polygon fill="black" stroke="black" points="472.03,-230.5 462.03,-234 472.03,-237.5 472.03,-230.5"/>
</g>
<!-- aws_ecr_repository.musiql_container_registry -->
<g id="node8" class="node">
<title>aws_ecr_repository.musiql_container_registry</title>
<polygon fill="none" stroke="black" points="543,-144 214,-144 214,-108 543,-108 543,-144"/>
<text text-anchor="middle" x="378.5" y="-122.3" font-family="sans-serif" font-size="14.00">aws_ecr_repository.musiql_container_registry</text>
</g>
<!-- aws_iam_role.lambda_role -->
<g id="node9" class="node">
<title>aws_iam_role.lambda_role</title>
<polygon fill="none" stroke="black" points="477,-90 280,-90 280,-54 477,-54 477,-90"/>
<text text-anchor="middle" x="378.5" y="-68.3" font-family="sans-serif" font-size="14.00">aws_iam_role.lambda_role</text>
</g>
<!-- aws_instance.bastion -->
<g id="node10" class="node">
<title>aws_instance.bastion</title>
<polygon fill="none" stroke="black" points="861.5,-414 697.5,-414 697.5,-378 861.5,-378 861.5,-414"/>
<text text-anchor="middle" x="779.5" y="-392.3" font-family="sans-serif" font-size="14.00">aws_instance.bastion</text>
</g>
<!-- aws_instance.bastion&#45;&gt;data.aws_ami.ubuntu -->
<g id="edge9" class="edge">
<title>aws_instance.bastion&#45;&gt;data.aws_ami.ubuntu</title>
<path fill="none" stroke="black" d="M697.28,-396C631.93,-396 540.09,-396 471.94,-396"/>
<polygon fill="black" stroke="black" points="471.64,-392.5 461.64,-396 471.64,-399.5 471.64,-392.5"/>
</g>
<!-- aws_security_group.bastion_sg -->
<g id="node17" class="node">
<title>aws_security_group.bastion_sg</title>
<polygon fill="none" stroke="black" points="494.5,-360 262.5,-360 262.5,-324 494.5,-324 494.5,-360"/>
<text text-anchor="middle" x="378.5" y="-338.3" font-family="sans-serif" font-size="14.00">aws_security_group.bastion_sg</text>
</g>
<!-- aws_instance.bastion&#45;&gt;aws_security_group.bastion_sg -->
<g id="edge10" class="edge">
<title>aws_instance.bastion&#45;&gt;aws_security_group.bastion_sg</title>
<path fill="none" stroke="black" d="M697.28,-385.01C641.91,-377.51 567.51,-367.45 504.63,-358.93"/>
<polygon fill="black" stroke="black" points="505.02,-355.46 494.64,-357.58 504.08,-362.39 505.02,-355.46"/>
</g>
<!-- aws_subnet.public_a -->
<g id="node23" class="node">
<title>aws_subnet.public_a</title>
<polygon fill="none" stroke="black" points="458.5,-468 298.5,-468 298.5,-432 458.5,-432 458.5,-468"/>
<text text-anchor="middle" x="378.5" y="-446.3" font-family="sans-serif" font-size="14.00">aws_subnet.public_a</text>
</g>
<!-- aws_instance.bastion&#45;&gt;aws_subnet.public_a -->
<g id="edge11" class="edge">
<title>aws_instance.bastion&#45;&gt;aws_subnet.public_a</title>
<path fill="none" stroke="black" d="M697.28,-406.99C630.82,-415.99 536.96,-428.69 468.48,-437.96"/>
<polygon fill="black" stroke="black" points="468.01,-434.49 458.57,-439.3 468.95,-441.43 468.01,-434.49"/>
</g>
<!-- aws_internet_gateway.musiql_igw -->
<g id="node11" class="node">
<title>aws_internet_gateway.musiql_igw</title>
<polygon fill="none" stroke="black" points="503,-576 254,-576 254,-540 503,-540 503,-576"/>
<text text-anchor="middle" x="378.5" y="-554.3" font-family="sans-serif" font-size="14.00">aws_internet_gateway.musiql_igw</text>
</g>
<!-- aws_vpc.musiql_vpc -->
<g id="node24" class="node">
<title>aws_vpc.musiql_vpc</title>
<polygon fill="none" stroke="black" points="158,-360 0,-360 0,-324 158,-324 158,-360"/>
<text text-anchor="middle" x="79" y="-338.3" font-family="sans-serif" font-size="14.00">aws_vpc.musiql_vpc</text>
</g>
<!-- aws_internet_gateway.musiql_igw&#45;&gt;aws_vpc.musiql_vpc -->
<g id="edge12" class="edge">
<title>aws_internet_gateway.musiql_igw&#45;&gt;aws_vpc.musiql_vpc</title>
<path fill="none" stroke="black" d="M253.54,-554.91C232.46,-550.27 211.69,-542.77 194,-531 135.64,-492.17 102.48,-412.34 88.3,-369.92"/>
<polygon fill="black" stroke="black" points="91.58,-368.68 85.18,-360.24 84.91,-370.83 91.58,-368.68"/>
</g>
<!-- aws_lambda_function.musiql_lambda&#45;&gt;aws_ecr_repository.musiql_container_registry -->
<g id="edge13" class="edge">
<title>aws_lambda_function.musiql_lambda&#45;&gt;aws_ecr_repository.musiql_container_registry</title>
<path fill="none" stroke="black" d="M641.75,-111.54C613.27,-113.11 582.89,-114.79 553.29,-116.42"/>
<polygon fill="black" stroke="black" points="553.07,-112.92 543.28,-116.97 553.46,-119.91 553.07,-112.92"/>
</g>
<!-- aws_lambda_function.musiql_lambda&#45;&gt;aws_iam_role.lambda_role -->
<g id="edge14" class="edge">
<title>aws_lambda_function.musiql_lambda&#45;&gt;aws_iam_role.lambda_role</title>
<path fill="none" stroke="black" d="M641.75,-93.03C591.2,-88.98 534.67,-84.44 487.07,-80.63"/>
<polygon fill="black" stroke="black" points="487.31,-77.13 477.06,-79.82 486.75,-84.11 487.31,-77.13"/>
</g>
<!-- aws_secretsmanager_secret.musiql_db_credentials -->
<g id="node16" class="node">
<title>aws_secretsmanager_secret.musiql_db_credentials</title>
<polygon fill="none" stroke="black" points="563,-36 194,-36 194,0 563,0 563,-36"/>
<text text-anchor="middle" x="378.5" y="-14.3" font-family="sans-serif" font-size="14.00">aws_secretsmanager_secret.musiql_db_credentials</text>
</g>
<!-- aws_lambda_function.musiql_lambda&#45;&gt;aws_secretsmanager_secret.musiql_db_credentials -->
<g id="edge15" class="edge">
<title>aws_lambda_function.musiql_lambda&#45;&gt;aws_secretsmanager_secret.musiql_db_credentials</title>
<path fill="none" stroke="black" d="M641.75,-91.96C626.95,-88.17 612.41,-83.28 599,-77 579.61,-67.92 582.4,-54.05 563,-45 558.87,-43.07 554.63,-41.28 550.31,-39.6"/>
<polygon fill="black" stroke="black" points="551.33,-36.25 540.74,-36.13 548.94,-42.83 551.33,-36.25"/>
</g>
<!-- aws_security_group.lambda_sg -->
<g id="node18" class="node">
<title>aws_security_group.lambda_sg</title>
<polygon fill="none" stroke="black" points="495,-306 262,-306 262,-270 495,-270 495,-306"/>
<text text-anchor="middle" x="378.5" y="-284.3" font-family="sans-serif" font-size="14.00">aws_security_group.lambda_sg</text>
</g>
<!-- aws_lambda_function.musiql_lambda&#45;&gt;aws_security_group.lambda_sg -->
<g id="edge16" class="edge">
<title>aws_lambda_function.musiql_lambda&#45;&gt;aws_security_group.lambda_sg</title>
<path fill="none" stroke="black" d="M734.97,-122.03C696.16,-139.61 639.41,-169.21 599,-207 577.93,-226.7 587.37,-245.57 563,-261 545.7,-271.95 525.67,-279.13 505.34,-283.73"/>
<polygon fill="black" stroke="black" points="504.43,-280.35 495.34,-285.79 505.84,-287.2 504.43,-280.35"/>
</g>
<!-- aws_lambda_function.musiql_lambda&#45;&gt;aws_subnet.private_a -->
<g id="edge17" class="edge">
<title>aws_lambda_function.musiql_lambda&#45;&gt;aws_subnet.private_a</title>
<path fill="none" stroke="black" d="M652.89,-122.01C634.62,-125.89 616.19,-130.52 599,-136 582.14,-141.38 579.94,-147.88 563,-153 534.19,-161.71 501.95,-167.66 472.63,-171.7"/>
<polygon fill="black" stroke="black" points="471.85,-168.28 462.39,-173.06 472.76,-175.22 471.85,-168.28"/>
</g>
<!-- aws_lambda_function.musiql_lambda&#45;&gt;aws_subnet.private_b -->
<g id="edge18" class="edge">
<title>aws_lambda_function.musiql_lambda&#45;&gt;aws_subnet.private_b</title>
<path fill="none" stroke="black" d="M716.01,-122.03C680.22,-133.87 635.35,-151.37 599,-174 580.57,-185.47 582.6,-197.68 563,-207 535.05,-220.3 502.21,-227.42 472.1,-231.12"/>
<polygon fill="black" stroke="black" points="471.56,-227.66 462.01,-232.25 472.33,-234.62 471.56,-227.66"/>
</g>
<!-- aws_route_table.public -->
<g id="node13" class="node">
<title>aws_route_table.public</title>
<polygon fill="none" stroke="black" points="866.5,-560 692.5,-560 692.5,-524 866.5,-524 866.5,-560"/>
<text text-anchor="middle" x="779.5" y="-538.3" font-family="sans-serif" font-size="14.00">aws_route_table.public</text>
</g>
<!-- aws_route_table.public&#45;&gt;aws_internet_gateway.musiql_igw -->
<g id="edge19" class="edge">
<title>aws_route_table.public&#45;&gt;aws_internet_gateway.musiql_igw</title>
<path fill="none" stroke="black" d="M692.41,-545.45C640.22,-547.54 572.52,-550.26 513.45,-552.63"/>
<polygon fill="black" stroke="black" points="513.14,-549.14 503.29,-553.04 513.42,-556.13 513.14,-549.14"/>
</g>
<!-- aws_route_table_association.public_a -->
<g id="node14" class="node">
<title>aws_route_table_association.public_a</title>
<polygon fill="none" stroke="black" points="1275.5,-529 1002.5,-529 1002.5,-493 1275.5,-493 1275.5,-529"/>
<text text-anchor="middle" x="1139" y="-507.3" font-family="sans-serif" font-size="14.00">aws_route_table_association.public_a</text>
</g>
<!-- aws_route_table_association.public_a&#45;&gt;aws_route_table.public -->
<g id="edge20" class="edge">
<title>aws_route_table_association.public_a&#45;&gt;aws_route_table.public</title>
<path fill="none" stroke="black" d="M1002.33,-522.76C960.54,-526.39 915.4,-530.3 876.82,-533.65"/>
<polygon fill="black" stroke="black" points="876.31,-530.18 866.65,-534.53 876.91,-537.15 876.31,-530.18"/>
</g>
<!-- aws_route_table_association.public_a&#45;&gt;aws_subnet.public_a -->
<g id="edge21" class="edge">
<title>aws_route_table_association.public_a&#45;&gt;aws_subnet.public_a</title>
<path fill="none" stroke="black" d="M1002.4,-500.09C848.11,-487.69 600.54,-467.78 468.77,-457.18"/>
<polygon fill="black" stroke="black" points="468.96,-453.68 458.71,-456.37 468.4,-460.66 468.96,-453.68"/>
</g>
<!-- aws_s3_bucket.musiql_bucket -->
<g id="node15" class="node">
<title>aws_s3_bucket.musiql_bucket</title>
<polygon fill="none" stroke="black" points="1551.5,-176 1327.5,-176 1327.5,-140 1551.5,-140 1551.5,-176"/>
<text text-anchor="middle" x="1439.5" y="-154.3" font-family="sans-serif" font-size="14.00">aws_s3_bucket.musiql_bucket</text>
</g>
<!-- aws_security_group.bastion_sg&#45;&gt;aws_vpc.musiql_vpc -->
<g id="edge22" class="edge">
<title>aws_security_group.bastion_sg&#45;&gt;aws_vpc.musiql_vpc</title>
<path fill="none" stroke="black" d="M262.48,-342C231.32,-342 198.09,-342 168.63,-342"/>
<polygon fill="black" stroke="black" points="168.38,-338.5 158.38,-342 168.38,-345.5 168.38,-338.5"/>
</g>
<!-- aws_security_group.lambda_sg&#45;&gt;aws_vpc.musiql_vpc -->
<g id="edge23" class="edge">
<title>aws_security_group.lambda_sg&#45;&gt;aws_vpc.musiql_vpc</title>
<path fill="none" stroke="black" d="M261.74,-303.48C239.21,-306.93 215.82,-310.82 194,-315 183.52,-317.01 172.56,-319.33 161.74,-321.74"/>
<polygon fill="black" stroke="black" points="160.84,-318.36 151.86,-323.98 162.39,-325.18 160.84,-318.36"/>
</g>
<!-- aws_security_group.rds_sg&#45;&gt;aws_security_group.bastion_sg -->
<g id="edge24" class="edge">
<title>aws_security_group.rds_sg&#45;&gt;aws_security_group.bastion_sg</title>
<path fill="none" stroke="black" d="M677.82,-342C625.33,-342 560.64,-342 504.92,-342"/>
<polygon fill="black" stroke="black" points="504.63,-338.5 494.63,-342 504.63,-345.5 504.63,-338.5"/>
</g>
<!-- aws_security_group.rds_sg&#45;&gt;aws_security_group.lambda_sg -->
<g id="edge25" class="edge">
<title>aws_security_group.rds_sg&#45;&gt;aws_security_group.lambda_sg</title>
<path fill="none" stroke="black" d="M677.82,-328.37C625.44,-321.28 560.9,-312.55 505.27,-305.02"/>
<polygon fill="black" stroke="black" points="505.73,-301.55 495.35,-303.68 504.79,-308.49 505.73,-301.55"/>
</g>
<!-- aws_security_group.secretsmanager_endpoint_sg -->
<g id="node20" class="node">
<title>aws_security_group.secretsmanager_endpoint_sg</title>
<polygon fill="none" stroke="black" points="960,-306 599,-306 599,-270 960,-270 960,-306"/>
<text text-anchor="middle" x="779.5" y="-284.3" font-family="sans-serif" font-size="14.00">aws_security_group.secretsmanager_endpoint_sg</text>
</g>
<!-- aws_security_group.secretsmanager_endpoint_sg&#45;&gt;aws_security_group.lambda_sg -->
<g id="edge26" class="edge">
<title>aws_security_group.secretsmanager_endpoint_sg&#45;&gt;aws_security_group.lambda_sg</title>
<path fill="none" stroke="black" d="M598.84,-288C567.16,-288 534.8,-288 505,-288"/>
<polygon fill="black" stroke="black" points="505,-284.5 495,-288 505,-291.5 505,-284.5"/>
</g>
<!-- aws_subnet.private_a&#45;&gt;aws_vpc.musiql_vpc -->
<g id="edge27" class="edge">
<title>aws_subnet.private_a&#45;&gt;aws_vpc.musiql_vpc</title>
<path fill="none" stroke="black" d="M294.89,-179.68C261.8,-182.64 224.39,-190.09 194,-207 148.38,-232.39 113.03,-283.69 94.46,-315.23"/>
<polygon fill="black" stroke="black" points="91.4,-313.53 89.46,-323.94 97.47,-317.01 91.4,-313.53"/>
</g>
<!-- aws_subnet.private_b&#45;&gt;aws_vpc.musiql_vpc -->
<g id="edge28" class="edge">
<title>aws_subnet.private_b&#45;&gt;aws_vpc.musiql_vpc</title>
<path fill="none" stroke="black" d="M294.95,-237.84C262.58,-241.46 225.67,-248.28 194,-261 161.24,-274.16 128.91,-298.51 107.1,-317.08"/>
<polygon fill="black" stroke="black" points="104.52,-314.68 99.27,-323.89 109.11,-319.97 104.52,-314.68"/>
</g>
<!-- aws_subnet.public_a&#45;&gt;aws_vpc.musiql_vpc -->
<g id="edge29" class="edge">
<title>aws_subnet.public_a&#45;&gt;aws_vpc.musiql_vpc</title>
<path fill="none" stroke="black" d="M298.14,-446.5C265.02,-442.98 226.72,-436.14 194,-423 161.24,-409.84 128.91,-385.49 107.1,-366.92"/>
<polygon fill="black" stroke="black" points="109.11,-364.03 99.27,-360.11 104.52,-369.32 109.11,-364.03"/>
</g>
<!-- aws_vpc_endpoint.s3 -->
<g id="node25" class="node">
<title>aws_vpc_endpoint.s3</title>
<polygon fill="none" stroke="black" points="460.5,-522 296.5,-522 296.5,-486 460.5,-486 460.5,-522"/>
<text text-anchor="middle" x="378.5" y="-500.3" font-family="sans-serif" font-size="14.00">aws_vpc_endpoint.s3</text>
</g>
<!-- aws_vpc_endpoint.s3&#45;&gt;aws_vpc.musiql_vpc -->
<g id="edge30" class="edge">
<title>aws_vpc_endpoint.s3&#45;&gt;aws_vpc.musiql_vpc</title>
<path fill="none" stroke="black" d="M296.27,-504.44C262.84,-501.56 224.81,-494.15 194,-477 148.38,-451.61 113.03,-400.31 94.46,-368.77"/>
<polygon fill="black" stroke="black" points="97.47,-366.99 89.46,-360.06 91.4,-370.47 97.47,-366.99"/>
</g>
<!-- aws_vpc_endpoint.secretsmanager -->
<g id="node26" class="node">
<title>aws_vpc_endpoint.secretsmanager</title>
<polygon fill="none" stroke="black" points="1269,-206 1009,-206 1009,-170 1269,-170 1269,-206"/>
<text text-anchor="middle" x="1139" y="-184.3" font-family="sans-serif" font-size="14.00">aws_vpc_endpoint.secretsmanager</text>
</g>
<!-- aws_vpc_endpoint.secretsmanager&#45;&gt;aws_security_group.secretsmanager_endpoint_sg -->
<g id="edge31" class="edge">
<title>aws_vpc_endpoint.secretsmanager&#45;&gt;aws_security_group.secretsmanager_endpoint_sg</title>
<path fill="none" stroke="black" d="M1101.41,-206.05C1066.05,-222.75 1010.55,-247.05 960,-261 950.98,-263.49 941.64,-265.76 932.17,-267.84"/>
<polygon fill="black" stroke="black" points="931.33,-264.44 922.27,-269.93 932.78,-271.29 931.33,-264.44"/>
</g>
<!-- aws_vpc_endpoint.secretsmanager&#45;&gt;aws_subnet.private_a -->
<g id="edge32" class="edge">
<title>aws_vpc_endpoint.secretsmanager&#45;&gt;aws_subnet.private_a</title>
<path fill="none" stroke="black" d="M1008.77,-176.64C992.36,-175.55 975.8,-174.62 960,-174 787.94,-167.24 587,-172.18 472.35,-176.21"/>
<polygon fill="black" stroke="black" points="472.08,-172.71 462.21,-176.57 472.33,-179.71 472.08,-172.71"/>
</g>
<!-- aws_vpc_endpoint.secretsmanager&#45;&gt;aws_subnet.private_b -->
<g id="edge33" class="edge">
<title>aws_vpc_endpoint.secretsmanager&#45;&gt;aws_subnet.private_b</title>
<path fill="none" stroke="black" d="M1008.77,-189.4C899.46,-191.33 738.78,-195.96 599,-207 557.36,-210.29 511.48,-215.66 472.48,-220.74"/>
<polygon fill="black" stroke="black" points="471.65,-217.32 462.19,-222.1 472.56,-224.26 471.65,-217.32"/>
</g>
</g>
</svg>
